4d 54 68 64
00 00 00 06
00 01 00 03
00 78

4d 54 72 6b
00 00 00 17
00 ff 58 02 03 02
00 ff 59 02 02 00
00 ff 51 03 05 b8 d8
00 ff 2f 00

4d 54 72 6b
00 00 01 1c

3c 90 4c 40
5a 80 4c 40

00 90 4d 40
1e 80 4d 40

00 90 4c 40
1e 80 4c 40

00 90 4b 40
1e 80 4b 40

00 90 4c 40
3c 80 4c 40

00 90 54 40
3c 80 54 40

00 90 53 40
82 68 80 53 40

00 80 53 40

3c 90 4c 40
5a 80 4c 40

00 90 4d 40
1e 80 4d 40

00 90 4c 40
1e 80 4c 40

00 90 4b 40
1e 80 4b 40

00 90 4c 40
3c 80 4c 40

00 90 53 40
3c 80 53 40

00 90 51 40
82 68 80 51 40

00 90 51 40
81 16 80 51 40

00 90 53 40
1e 80 53 40

00 90 51 40
1e 80 51 40

00 90 50 40
1e 80 50 40

00 90 51 40
3c 80 51 40

00 90 58 40
00 90 5b 40
3c 80 58 40
00 80 5b 40

00 90 56 40
00 90 59 40
78 80 56 00
00 80 59 00

00 80 59 00

3c 90 56 40
00 90 59 40
3c 80 56 00
00 80 59 00

00 90 56 40
00 90 59 40
78 80 56 00
00 80 59 00

00 90 56 40
00 90 59 40
78 80 56 00
00 80 56 00

00 90 58 40
00 90 5b 40
78 80 58 00
00 80 5b 00

00 90 56 40
00 90 59 40
78 80 56 00
00 80 59 00

00 90 56 40
00 90 59 40
78 80 56 40
00 80 59 40

00 90 54 40
00 90 58 40
81 70 80 54 40
00 80 58 40

81 34 90 54 40
3c 80 54 40

00 90 56 40
3c 80 56 40

00 90 58 40
3c 80 58 40

00 90 4d 40
00 90 52 40
00 90 58 40
81 34 80 4d 40
00 80 52 40
00 80 58 40

00 90 4d 40
00 90 53 40
00 90 56 40
3c 80 4d 40
00 80 53 40
00 80 56 40

00 90 4d 40
00 90 53 40
00 90 56 40
82 2c 80 4d 40
00 80 53 40
00 80 56 40

00 90 56 40
3c 80 56 40

00 90 58 40
3c 80 58 40

00 90 56 40
3c 80 56 40

00 90 4c 40
00 90 51 40
00 90 56 40
81 34 80 4c 40
00 80 51 40
00 80 56 40

00 90 4c 40
00 90 51 40
00 90 54 40
3c 80 4c 40
00 80 51 40
00 80 54 40

00 90 4c 40
00 90 51 40
00 90 54 40
82 68 80 4c 40
00 80 51 40
00 80 54 40

00 90 51 40
3c 80 51 40

00 90 53 40
3c 80 53 40

00 90 4b 40
00 90 51 40
00 90 54 40
81 34 80 4b 40
00 80 51 40
00 80 54 40

00 90 4b 40 
00 90 51 40
00 90 56 40
3c 80 4b 40
00 80 51 40
00 80 56 40

00 90 4b 40
00 90 51 40
00 90 54 40
78 80 4b 40
00 80 51 40
00 80 54 40

00 90 4c 40
00 90 50 40
00 90 53 40
78 80 4c 00
00 80 50 00
00 80 53 00

00 90 58 40
78 80 58 00

00 90 54 40
78 80 54 00

00 90 51 40
82 68 80 51 40

82 68 ff 2f 00

4d 54 72 6b
00 00 01 1c

82 68 90 3b 35
78 80 3b 35

00 90 3e 35
00 90 41 35
00 90 45 35
78 80 3e 00
00 80 41 00
00 80 45 00
 
00 90 3e 35
00 90 41 35
00 90 45 35
78 80 3e 35
00 80 41 35
00 80 45 35


00 90 34 35
78 80 34 35

00 90 3e 35
00 90 40 35
00 90 44 35
78 80 3e 00
00 80 40 00
00 80 44 00

00 90 3e 35
00 90 40 35
00 90 43 35
78 80 3e 00
00 80 40 00
00 80 43 00

00 90 39 35
78 80 39 35

00 90 3c 35
00 90 40 35
00 90 45 35
78 80 3c 00
00 80 40 00
00 80 45 00

00 90 3c 35
00 90 40 35
00 90 45 35
78 80 3c 35
00 80 40 35
00 80 45 35

00 90 39 35
78 80 39 35

00 90 3d 35
00 90 40 35
00 90 43 35
78 80 3d 00
00 80 40 00
00 80 43 00

00 90 3c 35
00 90 40 35
00 90 43 35
78 80 3c 35
00 80 40 35
00 80 43 35

00 90 32 35
78 80 32 35

00 90 3e 35
00 90 41 35
00 90 45 35
78 80 3e 00
00 80 41 00
00 80 45 00

00 90 3e 35
00 90 41 35
00 90 45 35
78 80 3e 35
00 80 41 35
00 80 45 35

00 90 37 35
00 80 37 35

00 90 3e 35
00 90 41 35
00 90 47 35
78 80 3e 00
00 80 41 00
00 80 47 00

00 90 3e 35
00 90 41 35
00 90 47 35
78 80 3e 00
00 80 41 00
00 80 47 00

00 90 30 35
78 80 30 35

00 90 3c 35
00 90 40 35
00 90 43 35
78 80 3c 00
00 80 40 00
00 80 43 00

00 90 3c 35
00 90 40 35
00 90 43 35
78 80 3c 00
00 80 40 00
00 80 43 00

00 90 30 35
78 80 30 35

00 90 3c 35
00 90 40 35
00 90 43 35
78 80 3c 00
00 80 40 00
00 80 43 00

00 90 3c 35
00 90 40 35
00 90 43 35
78 80 3c 00
00 80 40 00
00 80 43 00

00 90 3a 35
78 80 3a 35

00 90 3e 35
00 90 41 35
00 90 46 35
78 80 3e 00
00 80 41 00
00 80 46 00

00 90 3e 35
00 90 41 35
00 90 46 35
78 80 3e 00
00 80 41 00
00 80 47 00

00 90 3a 35
78 80 3a 35

00 90 3e 35
00 90 41 35
00 90 46 35
78 80 3e 00
00 80 41 00
00 80 46 00

00 90 3e 35
00 90 41 35
00 90 46 35
78 80 3e 00
00 80 41 00
00 80 47 00

00 90 39 35
78 80 39 35

00 90 3c 35
00 90 40 35
00 90 45 35
78 80 3c 00
00 80 40 00
00 80 45 00

00 90 3c 35
00 90 40 35
00 90 45 35
78 80 3c 35
00 80 40 35
00 80 45 35

00 90 37 35
78 80 37 35

00 90 3c 35
00 90 40 35
00 90 43 35
78 80 3c 00
00 80 40 00
00 80 43 00

00 90 3c 35
00 90 40 35
00 90 43 35
78 80 3c 00
00 80 40 00
00 80 43 00

00 90 35 35
78 80 35 35

00 90 3c 35
00 90 41 35
00 90 45 35
78 80 3c 00
00 80 41 00
00 80 45 00

00 90 3c 35
00 90 41 35
00 90 45 35
78 80 3c 00
00 80 41 00
00 80 45 00

00 90 44 35
78 80 44 00 

81 70 90 39 35
78 80 39 35

00 90 40 35
78 80 40 35

00 90 3c 35
78 80 3c 35

82 68  ff 2f 00
